<svg id="visual" viewBox="0 0 900 600" width="900" height="600" xmlns="http://www.w3.org/2000/svg" xmlns:xlink="http://www.w3.org/1999/xlink" version="1.1"><rect x="0" y="0" width="900" height="600" fill="#031521"></rect><path d="M0 478L21.5 486.2C43 494.3 86 510.7 128.8 508C171.7 505.3 214.3 483.7 257.2 467.8C300 452 343 442 385.8 452.2C428.7 462.3 471.3 492.7 514.2 504.3C557 516 600 509 642.8 505.3C685.7 501.7 728.3 501.3 771.2 490.8C814 480.3 857 459.7 878.5 449.3L900 439L900 601L878.5 601C857 601 814 601 771.2 601C728.3 601 685.7 601 642.8 601C600 601 557 601 514.2 601C471.3 601 428.7 601 385.8 601C343 601 300 601 257.2 601C214.3 601 171.7 601 128.8 601C86 601 43 601 21.5 601L0 601Z" fill="#43345B" stroke-linecap="round" stroke-linejoin="miter"></path></svg>