<svg width="56" height="56" viewBox="0 0 56 56" fill="none" xmlns="http://www.w3.org/2000/svg">
<path d="M3.81828 49.8431H12.7273V28.2067L0 18.6611V46.025C0 48.1345 1.70866 49.8433 3.81828 49.8433V49.8431Z" fill="#4285F4"/>
<path d="M43.2734 49.843H52.1825C54.292 49.843 56.0007 48.1343 56.0007 46.0248V18.6611L43.2734 28.2066V49.843Z" fill="#34A853"/>
<path d="M43.2734 11.6614V28.2069L56.0007 18.6614V13.5706C56.0007 8.85193 50.614 6.15693 46.8371 8.98876L43.2734 11.6614Z" fill="#FBBC04"/>
<path fill-rule="evenodd" clip-rule="evenodd" d="M12.7266 28.2066V11.6611L27.9993 23.1158L43.2719 11.6611V28.2066L27.9993 39.6611L12.7266 28.2066Z" fill="#EA4335"/>
<path d="M0 13.5703V18.6611L12.7273 28.2066V11.6612L9.16366 8.98851C5.38672 6.1567 0 8.85168 0 13.5701V13.5703Z" fill="#C5221F"/>
</svg>
