<svg width="56" height="56" viewBox="0 0 56 56" fill="none" xmlns="http://www.w3.org/2000/svg">
<g clip-path="url(#clip0_1830_41)">
<path fill-rule="evenodd" clip-rule="evenodd" d="M20.5321 0C17.4365 0.00228338 14.9312 2.50944 14.9335 5.59886C14.9312 8.68828 17.4388 11.1954 20.5344 11.1977H26.1353V5.60114C26.1376 2.51172 23.63 0.00456677 20.5321 0C20.5344 0 20.5344 0 20.5321 0V0ZM20.5321 14.9333H5.60092C2.50532 14.9356 -0.0022817 17.4428 6.2527e-06 20.5322C-0.00456966 23.6216 2.50303 26.1288 5.59863 26.1333H20.5321C23.6277 26.1311 26.1353 23.6239 26.133 20.5345C26.1353 17.4428 23.6277 14.9356 20.5321 14.9333Z" fill="#36C5F0"/>
<path fill-rule="evenodd" clip-rule="evenodd" d="M55.9979 20.5322C56.0002 17.4428 53.4926 14.9356 50.3971 14.9333C47.3015 14.9356 44.794 17.4428 44.7962 20.5322V26.1333H50.3971C53.4926 26.1311 56.0002 23.6239 55.9979 20.5322ZM41.0646 20.5322V5.59886C41.0669 2.51172 38.5616 0.00456677 35.4661 0C32.3705 0.00228338 29.863 2.50944 29.8652 5.59886V20.5322C29.8607 23.6216 32.3682 26.1288 35.4638 26.1333C38.5594 26.1311 41.0669 23.6239 41.0646 20.5322Z" fill="#2EB67D"/>
<path fill-rule="evenodd" clip-rule="evenodd" d="M35.4661 56.0003C38.5616 55.998 41.0692 53.4908 41.0669 50.4014C41.0692 47.312 38.5616 44.8048 35.4661 44.8025H29.8652V50.4014C29.8629 53.4885 32.3705 55.9957 35.4661 56.0003ZM35.4661 41.0646H50.3994C53.4949 41.0623 56.0025 38.5551 56.0002 35.4657C56.0048 32.3762 53.4972 29.8691 50.4017 29.8645H35.4684C32.3728 29.8668 29.8652 32.374 29.8675 35.4634C29.8652 38.5551 32.3705 41.0623 35.4661 41.0646Z" fill="#ECB22E"/>
<path fill-rule="evenodd" clip-rule="evenodd" d="M1.56442e-06 35.4653C-0.00228639 38.5548 2.50531 41.062 5.60092 41.0642C8.69652 41.062 11.2041 38.5548 11.2018 35.4653V29.8665H5.60092C2.50531 29.8687 -0.00228639 32.3759 1.56442e-06 35.4653ZM14.9335 35.4653V50.3988C14.9289 53.4882 17.4365 55.9954 20.5321 56C23.6277 55.9977 26.1353 53.4905 26.133 50.4011V35.4699C26.1376 32.3805 23.63 29.8733 20.5344 29.8687C17.4365 29.8687 14.9312 32.3759 14.9335 35.4653C14.9335 35.4653 14.9335 35.4676 14.9335 35.4653Z" fill="#E01E5A"/>
</g>
<defs>
<clipPath id="clip0_1830_41">
<rect width="56" height="56" fill="white"/>
</clipPath>
</defs>
</svg>
