<svg id="visual" viewBox="0 0 900 600" width="900" height="600" xmlns="http://www.w3.org/2000/svg" xmlns:xlink="http://www.w3.org/1999/xlink" version="1.1"><path d="M0 539L21.5 543C43 547 86 555 128.8 553.7C171.7 552.3 214.3 541.7 257.2 533.7C300 525.7 343 520.3 385.8 525.3C428.7 530.3 471.3 545.7 514.2 551.7C557 557.7 600 554.3 642.8 552.5C685.7 550.7 728.3 550.3 771.2 545C814 539.7 857 529.3 878.5 524.2L900 519L900 601L878.5 601C857 601 814 601 771.2 601C728.3 601 685.7 601 642.8 601C600 601 557 601 514.2 601C471.3 601 428.7 601 385.8 601C343 601 300 601 257.2 601C214.3 601 171.7 601 128.8 601C86 601 43 601 21.5 601L0 601Z" fill="#ecd664" stroke-linecap="round" stroke-linejoin="miter"></path></svg>